<svg id="epZxOqrVKFS1" xmlns="http://www.w3.org/2000/svg" xmlns:xlink="http://www.w3.org/1999/xlink" viewBox="0 0 300 300" shape-rendering="geometricPrecision" text-rendering="geometricPrecision" project-id="7c3d290516944199b6a79287e663de6f" export-id="7257ed7897e84a148c06a965916e4586" cached="false"><g transform="translate(0 2.005715)"><path d="M91.798935,86.248016l2.097486,12.165419-8.10689,13.789187q11.006202-.090214,11.051309-.090214t4.194952,16.861843l-5.667291,10.878158h8.633893l3.406877,17.680167-19.309293,16.438703L30.9865,181.85286l-2.747503-15.708547l6.271474-12.961045-7.884138.418098-2.285724-14.5373l5.462501-12.917209h-7.348638L20.71693,110.969905l9.08618-24.721889h61.995825Z" transform="translate(0 0.000001)" stroke-width="0.6"/><path d="M34.054089,89.978611l1.097547,10.661888l15.47019-.156792-12.056162,16.582325l2.078,12.72775l14.8577-.4156-11.746701,18.857967l1.956347,13.079579l57.245464-7.003807-2.4087-10.611301-11.587801,1.1718l9.048507-18.725562-2.639981-10.323542-12.502125.278201q-7.869126,11.008828-7.869126,11.048571t8.147327-.238458L72.918062,146.28076l-12.996871.711075L90.076592,97.26492l-1.116619-7.286309h-54.905884Z" transform="translate(0.000002 0)" fill="#fff" stroke-width="0.6"/><path d="M64.063101,100.483707h7.217155l-8.780257,15.61781h-8.970691l10.533793-15.61781Z" transform="translate(0.000001 0)" stroke-width="0.6"/><path d="M29.80311,195.612259v2.90866l7.001251.028798-7.001251,6.42209v2.67827h10.840556v-2.67827h-6.133195l6.133195-6.42209v-2.937458h-10.840556Z" transform="translate(1.844104 -7.51524)" stroke-width="0.6"/><path d="M56.445011,195.612259l-.057598,2.937458h7.675688l-7.099715,6.42209-.143993,2.67827h11.202658l.028798-2.67827h-6.566082l7.020516-6.450888v-2.90866h-12.060272Z" transform="translate(1.844104 -7.51524)" stroke-width="0.6"/><path d="M83.56233,195.612259l.024284,3.357925l7.552201-.420468-7.118637,6.422089.078858,2.67827h11.269464v-2.67827h-6.408526l6.408526-6.422089v-2.937457h-11.80617Z" transform="translate(1.844106 -7.515238)" stroke-width="0.6"/><g transform="matrix(1.314643 0 0 1 30.577046 209.67656)"><path d="M0.256,0v-.576l1.416-3.408h-1.272v-.64h2.192v.464L1.168,-0.648h1.392v.648Zm4.168.064q-.544,0-.84-.212t-.412-.624-.116-1.012v-1.056q0-.616.12-1.024t.42-.616.828-.208q.584,0,.86.24t.364.692.088,1.084v.376h-1.824v.928q0,.28.052.456t.168.26.3.084q.192,0,.292-.092t.136-.264.036-.404v-.28h.832v.176q0,.696-.296,1.096t-1.008.4ZM3.912,-2.76h.984v-.416q0-.288-.032-.484t-.132-.296-.316-.1q-.208,0-.316.096t-.148.324-.04.628ZM6.512,0v-4.624h.856v.456q.232-.216.512-.368t.616-.152q.28,0,.428.144t.208.36.06.44v3.744h-.856v-3.496q0-.248-.072-.384t-.296-.136q-.144,0-.3.084t-.3.204v3.728Zm3.592,0v-6.48h.856v6.48Zm3.032.064q-.544,0-.84-.212t-.412-.624-.116-1.012v-1.056q0-.616.12-1.024t.42-.616.828-.208q.584,0,.86.24t.364.692.088,1.084v.376h-1.824v.928q0,.28.052.456t.168.26.3.084q.192,0,.292-.092t.136-.264.036-.404v-.28h.832v.176q0,.696-.296,1.096t-1.008.4Zm-.512-2.824h.984v-.416q0-.288-.032-.484t-.132-.296-.316-.1q-.208,0-.316.096t-.148.324-.04.628Zm3.672,2.824q-.568,0-.912-.356t-.392-.94l.712-.216q.064.44.216.66t.448.22q.232,0,.352-.132t.12-.356q0-.2-.088-.36t-.288-.328l-.792-.68q-.24-.208-.404-.464t-.164-.664q0-.368.148-.62t.416-.384.628-.132q.576,0,.88.356t.352.86l-.608.216q-.032-.24-.096-.42t-.184-.28-.312-.1q-.208,0-.332.14t-.124.332q0,.12.052.236t.18.228l.816.752q.168.152.316.328t.244.4.096.52q0,.392-.16.656t-.448.396-.672.132Zm2.992,0q-.568,0-.912-.356t-.392-.94l.712-.216q.064.44.216.66t.448.22q.232,0,.352-.132t.12-.356q0-.2-.088-.36t-.288-.328l-.792-.68q-.24-.208-.404-.464t-.164-.664q0-.368.148-.62t.416-.384.628-.132q.576,0,.88.356t.352.86l-.608.216q-.032-.24-.096-.42t-.184-.28-.312-.1q-.208,0-.332.14t-.124.332q0,.12.052.236t.18.228l.816.752q.168.152.316.328t.244.4.096.52q0,.392-.16.656t-.448.396-.672.132ZM22.864,0v-.576l1.416-3.408h-1.272v-.64h2.192v.464l-1.424,3.512h1.392v.648Zm4.16.064q-.512,0-.808-.208t-.42-.592-.124-.904v-1.344q0-.52.124-.904t.42-.592.808-.208.804.208.416.592.124.904v1.344q0,.52-.124.904t-.416.592-.804.208Zm0-.632q.248,0,.348-.144t.12-.38.02-.492v-1.448q0-.264-.02-.496t-.12-.38-.348-.148-.352.148-.124.38-.02.496v1.448q0,.256.02.492t.124.38.352.144ZM29.152,0v-4.624h.856v.456q.232-.216.512-.368t.616-.152q.28,0,.428.144t.208.36.06.44v3.744h-.856v-3.496q0-.248-.072-.384t-.296-.136q-.144,0-.3.084t-.3.204v3.728Zm4.792.064q-.544,0-.84-.212t-.412-.624-.116-1.012v-1.056q0-.616.12-1.024t.42-.616.828-.208q.584,0,.86.24t.364.692.088,1.084v.376h-1.824v.928q0,.28.052.456t.168.26.3.084q.192,0,.292-.092t.136-.264.036-.404v-.28h.832v.176q0,.696-.296,1.096t-1.008.4Zm-.512-2.824h.984v-.416q0-.288-.032-.484t-.132-.296-.316-.1q-.208,0-.316.096t-.148.324-.04.628ZM37.688,0v-.576l1.416-3.408h-1.272v-.64h2.192v.464L38.6,-0.648h1.392v.648Zm4.168.064q-.544,0-.84-.212t-.412-.624-.116-1.012v-1.056q0-.616.12-1.024t.42-.616.828-.208q.584,0,.86.24t.364.692.088,1.084v.376h-1.824v.928q0,.28.052.456t.168.26.3.084q.192,0,.292-.092t.136-.264.036-.404v-.28h.832v.176q0,.696-.296,1.096t-1.008.4Zm-.512-2.824h.984v-.416q0-.288-.032-.484t-.132-.296-.316-.1q-.208,0-.316.096t-.148.324-.04.628ZM43.968,0v-4.624h.856v.656q.256-.424.512-.568t.512-.144q.032,0,.06,0t.076.008v.944q-.096-.04-.22-.068t-.252-.028q-.2,0-.364.092t-.324.356v3.376Zm3.792.064q-.512,0-.808-.208t-.42-.592-.124-.904v-1.344q0-.52.124-.904t.42-.592.808-.208.804.208.416.592.124.904v1.344q0,.52-.124.904t-.416.592-.804.208Zm0-.632q.248,0,.348-.144t.12-.38.02-.492v-1.448q0-.264-.02-.496t-.12-.38-.348-.148-.352.148-.124.38-.02.496v1.448q0,.256.02.492t.124.38.352.144Z" stroke-width="0"/></g></g><g transform="translate(0.000001 0)"><path d="M213.790938,100.226972q7.849015-4.913123,7.968847-5.152788t4.973039-3.894549l4.19413-10.964655l1.437987-5.991614-1.239584-11.370895-1.435182-7.875104-15.174629-6.516976-18.806399,2.033124-7.471732,1.372359l6.539135,29.786311l3.739788,8.904256q8.013831,6.232979,8.459043,6.232979t6.815557,3.437552Z" transform="translate(0.000001 0.000001)" stroke-width="0.6"/><path d="M126.191152,280.590076l-1.155911-11.228845-.082566-9.742676q3.715427-14.036058,4.128252-14.448883t8.256504-15.026837l6.687768-10.816021l14.614013-10.652541l16.678138-11.062064l6.357508-4.600817l4.620218-15.621628-1.887581-15.10065-6.979701-3.36024-5.547129-7.015488-1.468358-5.71028.734179-8.239119l3.099866-6.164492l5.791856-7.21388l5.139253-5.51387-7.749667,8.581138-.710853-3.276136-2.042924-3.263774-4.26171-10.814648-15.927851-27.846329-5.853032-10.943289-6.909481-15.241502-1.42254-12.193201l3.86118-2.74347l9.957781-3.75957l51.414666-9.449731l7.147149-.617226l11.108493-4.430916l2.246662-1.684996l4.306101-1.310553l1.212931,2.236489-5.347605,2.48577-2.553301,2.07268q-2.102719-.961242-1.952525-.931204t2.413379-2.664388l1.6-1.56l4.44-1.38l1.14,1.86-4.64,2.68l1.94,1.94l4.7-1.24-2.201328,2.926531l2.4622-3.108605-4.96,1.22-1.64-1.74l6.78-3q4.42,3,4.4,3.02t-5.3,5.56q19.594893-4.961285,19.567435-4.988743t2.883118.713915q.274583,1.482746.192208,1.482746c-.082375,0-2.004454.439332-2.031912.439332q-.027458,0-9.936609,2.918302-8.908398,3.72069-8.929659,3.741952c-.021261.021262,4.549873.19135,4.634918.212611q.085045.021261,10.864418-.829182q4.294741-.318917,4.337263-.318917t1.615843.744139q.148827,1.637104.042522,1.615843t-6.484633.892966q-9.695058,1.679626-9.716319,1.700887t-10.545501,4.08213q2.28831,2.62076,2.375879,2.64995t4.670341,3.094101l2.50292,2.344437.82,2.1-.28,1.9-1.64-.08-2.96-2.7q-4.375279-2.265011-4.498438-2.265011t-4.967417-2.996871l-5.624265-2.504235-4.433728-1.806333-3.653719-3.776879-4.762152-.164212-12.15509,3.75138-34.736501,12.585689-.431509,3.23632l13.089116,25.746723l17.070446,16.157992-1.125875-21.04908-3.131946-5.741901q-1.435475-9.591583-1.370226-9.78733t3.523439-11.744797q2.609955-6.198643,2.544706-6.133394t6.524887-2.740452l10.37457-3.784435l4.828416.456743l2.848261,2.806385l4.000501,1.785535q6.147663,2.712204,6.170265,2.712204t9.47561,5.162602l3.02,2.74q1.9.42,1.9.4t1.168157,5.718749l-.206807,7.208672-1.861255,10.458482.3429,7.299219q.332251,11.891791.332251,11.9262c0,.034409-.453962,5.075412-.453962,5.141055q0,.065643-2.127829,7.703984-3.306008,6.208844-3.346325,6.208844t-.28222-13.143397q-2.096493,12.296737-2.096493,12.135468t.120952-19.715096l.241903-10.079293-.322538-6.047575q1.565844-5.408674,1.565844-5.64846c0-.239786-.639428-7.007075-.639428-7.033718q0-.026643-1.518644-9.165149l-.506215,12.575436-1.374133-7.433926-1.872195-8.882968-.19917,9.241473-1.951863,6.373431-.478007-15.814074-.358506,9.719481-3.186715,8.763466-.677177-9.759314-3.54522-11.312839v9.759315l1.473855,10.794997-3.146881-8.962636.902924,11.385739-3.642694-3.523911-3.484316-7.602143q.593918,7.245793.475134,7.245793t-2.019319-5.780797l1.029457,7.404171-4.315801-5.186879-.593917-3.16756l1.14824,7.681333-2.177697-4.711746-1.029457-7.720927q.033823,14.383767-.002536,14.383767c-.036359,0-1.781565-2.654168-1.817924-2.690527s-.690812,2.472376-.72717,2.472376-2.436019-3.199546-2.326943-3.199546q.109076,0-.799886-6.2173l-.181792,5.999149q.872603,3.417698.799886,3.381339t-2.181509-4.472093l2.799603,11.780147-2.573052-2.155315l4.141525,10.30259l5.490904,5.34203l9.936028,6.230158q13.158525-9.23782,13.212233-9.130404t4.189244-10.20457l.175475,5.906168-.88.4-1.38-.68-2.04,4.82-3.08,2.12.399791,5.905602l3.924115,1.40147.700735,5.325584l2.172278.070074.175183-15.030762q-2.943086,3.53871-3.083233,3.573747t-3.854042,1.856948l.102752,2.483339l3.74,1.54.92,5.36l1.92-.04.095851,9.93271.3-.040001l1.78-10.039999.28,10.5q3.68-6.02,3.78-6.08t.9-3.2l8.402431,2.250718l2.790055,1.657458q2.845303,4.060774,2.872928,4.088398c.027625.027624,1.359979,4.838847,1.435831,4.838847q.075852,0,1.213625,9.178038l-7.319675-3.14784-.303406-2.047992-.075851,1.820438-3.451246-2.047992l11.643213,5.992272l3.22432,1.752129l3.928775,3.090637l3.509705,4.452611q1.978521.578881,2.059908.633139t2.414494,2.088945l1.193683-.217033l1.464974,1.383586.189905,1.166554-.488325,1.60062-1.030908.841004-.786745.135646q-2.088945-1.736266-2.061816-1.736266t1.817653,1.736266l2.088945-.461196.054258,1.871912-2.631528,5.046022-.108516,1.573491-1.058037,3.174111-1.112296,2.821432-2.495882,3.309757-1.953299,1.220811-1.980428,1.247942q-2.305978.841003-2.333107.841003t-2.604399.623971q-2.116074.189904-2.170332.189904t-2.87569-.352679l-2.848561-.895262q-2.468754-1.3022-2.495883-1.329329c-.027129-.027129-2.468753-1.492102-2.495882-1.546361q-.027129-.054259-2.170332-2.360237l-2.468753-3.336886-2.827631-3.158276-2.048528-3.724597-1.564331-3.426629l2.420988,5.326173l3.63753,4.788407l1.23192,1.58688l1.607759,2.213279l1.566,1.71216l3.340799,2.401199-.35496,2.79792.136084,2.676964-.90549,9.787908-.689896,3.665075-2.457757,6.683373q-2.06969,3.535721-2.06969,3.578839t-2.490202,14.202318l-.512634,10.893482-.320397,9.483738q-.512634,8.266231-.512634,10.060451t.256317,5.382661q-1.409745,5.318582-1.409745,5.382662t-1.409744,4.998186l-1.483242,3.123294q-1.449652,8.050193-1.480495,8.204411c-.030843.154218-1.01784,4.595705-1.01784,4.626548q0,.030843-2.436649,4.719078l-2.614681,4.784315q-47.01449-.255804-47.01449-.294455c0-.038651.538561-6.803616.538561-6.845202q0-.041586-.998079-7.859871l-2.869477-11.394734q3.07741,11.020454,3.07741,11.062041t4.824048,2.162504q7.901458-1.829811,8.026218-1.912984t12.184879-4.366595l12.09495-4.135766L183.40588,267.99967l-6.411696-1.790025.901447,7.512058-.945358,7.079932-50.705524.118674-.053597-.330233Z" transform="translate(0.000001 0.000002)" stroke="#fff"/><path d="M181.013691,136.338724q0,.0447-.737547,1.162196l.022349,1.676244q1.028096,1.586844,1.050446,1.586844c.02235,0,1.787992.402299,1.832692.402299q.0447,0,2.190292-.938697l.290547-2.57024-.938696-1.206896" transform="translate(0.000004 0)" fill="none" stroke="#fff"/><path d="M179.894253,267.080799l8.032627-6.45479-.239066-1.816904-1.721277.621573-4.159754,2.916608-3.346928,4.159754l1.434398.573759Z" fill="#fff"/><path d="M220.306245,71.824898l-.140763,3.322004l8.276858.422289l2.927869-2.674496-3.744295-1.520241-1.942528-.253374q-1.829918.056305-1.886223.056305t-1.689155-.056305l-1.801763.703818Z" transform="translate(0.000002 0.000003)" fill="none" stroke="#fff"/><path d="M225.934338,74.888789q0,.02-.02-1.22l-.52-1.02q-.82-.38-.9-.42t-1.36-.1l-1.12.22-.88.46-.54.46.36,1.72l4.88.26q.1-.38.1-.36Z" fill="none" stroke="#fff"/><path d="M219.560453,72.923661l.92-1.18-1.58-.16l1.78-.14l1.36-.52l5.58.2l4.72,2.02-1.24-.12-1.74,1.94q1.36.4,1.34.4t-1.76-.14l.34.78q-1.28-.28-1.28-.3t-1.18.36l-.04-.5-.54.34-.12-.32-5.82-.52q-.02-2.7-.04-2.7t-.7.56Z" fill="none" stroke="#fff"/><path d="M205.246436,73.48875q.3.1,1.12,1.08l-.3,1.44-8.46,1.04-1.56-2.02q4.02-.78,4.1-.82c.08-.04,4.8-.82,5.1-.72Z" fill="none" stroke="#fff"/><path d="M206.406436,73.48875q-.06.04-1.26-.22l-9.94,1.88-.96-1.36l2.08-.68l2.94-.56l2.1-.26l4.88.16-.94.26l1.06.66" fill="#fff"/><path d="M200.313884,76.511159l-.26-1.6.5-.64l4.8-.64.94.98q-.28,1.42-.3,1.42t-5.68.64v-.16Z" fill="none" stroke="#fff"/><path d="M210.304671,90.389336c.02-.02,7.64-.2,7.64-.24q0-.04-.18-.56l-3.7-.34-1.7.06q-2.08,1.1-2.06,1.08Z" fill="none" stroke="#fff" stroke-width="0.6"/></g><ellipse rx="12" ry="12" transform="translate(119.409271 199.746275)" stroke-width="0"/><g transform="translate(129.875798 215.926687)"><path d="M3.421875,-27.421875q0-1.007812.09375-1.96875t.457031-1.722656t1.066407-1.230469t1.945312-.46875q1.21875,0,1.933594.46875t1.078125,1.230469.457031,1.722656.09375,1.96875v7.359375h6.421875v-7.359375q0-1.007812.09375-1.96875t.457031-1.722656t1.066407-1.230469t1.945312-.46875q1.21875,0,1.933594.46875t1.078125,1.230469.457031,1.722656.09375,1.96875v22.03125q0,1.03125-.09375,1.992188t-.457031,1.722656-1.078125,1.21875-1.933594.457031q-1.242187,0-1.945312-.457031t-1.066407-1.21875-.457031-1.722656-.09375-1.992188v-7.78125h-6.421875v7.78125q0,1.03125-.09375,1.992188t-.457031,1.722656-1.078125,1.21875-1.933594.457031q-1.242187,0-1.945312-.457031t-1.066407-1.21875-.457031-1.722656-.09375-1.992188Zm45.84375,14.0625q0,.375-.046875.878906t-.363281.960938-.996094.785156-1.921875.328125h-9.328125v2.25q0,.5625.140625,1.171875t.480469,1.125.902344.84375t1.382812.328125q.9375,0,1.441406-.222656t.796875-.550781.527344-.703125.621094-.703125t1.078125-.550782t1.910156-.222656q.585938,0,1.136719.09375t.972656.351563.679688.714843.257812,1.183594q0,1.523438-.960937,2.542969t-2.414063,1.628906-3.152344.867188-3.175781.257812q-1.945312-.023437-3.703125-.492187t-3.105469-1.5-2.144531-2.695313-.796875-4.078125v-5.484375q0-2.226562.527344-3.773437t1.371094-2.578125t1.898437-1.605469t2.132813-.855469t2.050781-.351562t1.675781-.070313q2.367188,0,4.042969.421875t2.800781,1.101563t1.78125,1.570312.984375,1.839844.421875,1.921875.09375,1.816406Zm-12.65625-.5625h5.859375q0-1.101562-.058594-1.957031t-.351562-1.441406-.914063-.890625-1.769531-.304688q-.960937,0-1.511719.304688t-.832031.761718-.351562.972657-.070313.914062ZM73.875,-5.34375q0,1.007813-.117187,1.96875t-.503907,1.710938-1.101562,1.207031-1.933594.457031q-1.195312,0-1.898437-.457031t-1.078125-1.207031-.480469-1.710938-.105469-1.96875v-9.140625q0-.65625-.058594-1.289062t-.269531-1.113282-.621094-.773437-1.113281-.292969q-.960937,0-1.546875.632813t-.925781,1.734375-.457031,2.589843-.117188,3.199219v4.453125q0,1.007813-.117187,1.96875t-.503907,1.710938-1.101562,1.207031-1.933594.457031q-1.195312,0-1.898437-.457031t-1.078125-1.207031-.480469-1.710938-.105469-1.96875v-12.796875q0-1.007812.070313-1.957031t.421875-1.6875t1.066406-1.195313t2.003906-.457031t2.015625.433594t1.089844,1.042969.457031,1.289062.09375,1.171875q.1875-.679687.585938-1.382812t1.019531-1.265625t1.488281-.925782t2.015625-.363281q1.289063,0,2.578125.421875t2.320313,1.40625t1.675781,2.578125.644531,3.9375Zm8.765625-18.09375v-4.125q0-.984375.105469-1.921875t.480469-1.675781t1.078125-1.195313t1.898437-.457031q1.171875,0,1.875.457031t1.066406,1.195313.46875,1.675781.105469,1.921875v4.125h1.921875q.609375,0,1.21875.058594t1.089844.339844.773437.84375.292969,1.570312q0,.960938-.292969,1.523438t-.773437.84375-1.089844.363281-1.21875.082031h-1.921875v8.203125q0,.46875.035156.996094t.246094.972656.632813.738281t1.195312.292969q.84375,0,1.441406.128906t.984375.457032.574219.914062.1875,1.5q0,.9375-.433594,1.617188t-1.160156,1.125-1.6875.65625-2.015625.210937q-1.664062,0-2.847656-.351562t-1.96875-.996094-1.242188-1.546875-.679687-2.027344-.28125-2.425781-.058594-2.730469v-7.734375h-1.3125q-.609375,0-1.207031-.082031t-1.066406-.363281-.761719-.84375-.292969-1.523438q0-1.007812.292969-1.570312t.761719-.84375t1.066406-.339844t1.207031-.058594Zm35.71875,18.140625q0,.984375-.070312,1.933594t-.421875,1.699219-1.054688,1.207031-1.96875.457031q-1.289062,0-2.015625-.433594t-1.078125-1.054687-.433594-1.300781-.082031-1.148438q-.210937.679688-.597656,1.382813t-.996094,1.265625-1.464844.925781-2.003906.363281q-1.289062,0-2.578125-.421875t-2.320312-1.40625-1.675782-2.566406-.644531-3.902344v-6.796875q0-2.34375.644531-3.925781t1.675782-2.554688t2.320312-1.394531t2.578125-.421875q1.148438,0,2.003906.351563t1.464844.914062.996094,1.265625.597656,1.40625q0-1.171875.328125-1.945312t.84375-1.230469t1.160156-.632813t1.277344-.175781q1.171875,0,1.875.457031t1.066406,1.195313.46875,1.710937.105469,1.980469Zm-12.1875-3.609375q0,.632813.046875,1.242188t.257813,1.101562.621093.785156t1.136719.292969q.914063,0,1.488281-.410156t.902344-1.265625.457031-2.15625.152344-3.105469q0-.726562-.128906-1.675781t-.457031-1.792969-.914063-1.429687-1.5-.585938q-.726562,0-1.136719.292969t-.621093.761719-.257813,1.066406-.046875,1.207031ZM124.5,-18.1875q0-.984375.105469-1.921875t.480469-1.675781t1.078125-1.195313t1.898437-.457031t1.898438.457031t1.078125,1.195313.480468,1.675781.105469,1.921875v12.9375q0,.984375-.105469,1.933594t-.480468,1.6875-1.078125,1.183594-1.898438.445312-1.898437-.445312-1.078125-1.183594-.480469-1.6875-.105469-1.933594Zm7.171875-11.0625q0,1.804688-.9375,2.683594t-2.625.878906-2.625-.878906-.9375-2.683594q0-1.875.9375-2.71875t2.625-.84375q1.804688,0,2.683594.84375t.878906,2.71875Z" stroke="#fff" stroke-width="2"/></g></svg>
